<svg width="1000" height="1000" viewBox="0 0 1000 1000" fill="none" xmlns="http://www.w3.org/2000/svg">
<g clip-path="url(#clip0)">
<path d="M421.581 56.2112L421.923 54.6502L421.923 723.805L211.101 513.447C200.809 503.146 186.866 497.496 172.232 497.496C157.597 497.496 143.752 503.146 133.435 513.447L100.687 546.179C90.3941 556.471 84.7031 570.187 84.7031 584.813C84.7031 599.447 90.3535 613.171 100.646 623.463L461.207 984.057C471.541 994.39 485.305 1000.04 499.947 1000C514.671 1000.04 528.443 994.39 538.76 984.057L899.354 623.463C909.638 613.171 915.297 599.455 915.297 584.813C915.297 570.187 909.63 556.471 899.354 546.179L866.606 513.447C856.329 503.146 842.606 497.496 827.971 497.496C813.345 497.496 800.345 503.146 790.061 513.447L578.061 726.179V55.4632C578.061 25.325 552.085 -0.000232852 521.963 -0.000232852H475.646C445.524 -0.000232852 421.581 26.0729 421.581 56.2112Z" fill="#B151DA"/>
</g>
<defs>
<clipPath id="clip0">
<rect width="1000" height="1000" fill="white" transform="translate(0 1000) rotate(-90)"/>
</clipPath>
</defs>
</svg>
