<svg width="1000" height="1000" viewBox="0 0 1000 1000" fill="none" xmlns="http://www.w3.org/2000/svg">
<g clip-path="url(#clip0)">
<path d="M578.419 943.789L578.077 945.35V276.195L788.898 486.553C799.191 496.854 813.134 502.504 827.768 502.504C842.402 502.504 856.248 496.854 866.565 486.553L899.313 453.821C909.606 443.529 915.297 429.813 915.297 415.187C915.297 400.553 909.646 386.829 899.354 376.537L538.793 15.9433C528.459 5.60997 514.695 -0.0404326 500.053 0.000217816C485.329 -0.0404326 471.557 5.60997 461.24 15.9433L100.646 376.537C90.3617 386.829 84.7032 400.545 84.7032 415.187C84.7032 429.813 90.3698 443.529 100.646 453.821L133.394 486.553C143.671 496.854 157.394 502.504 172.028 502.504C186.654 502.504 199.654 496.854 209.939 486.553L421.939 273.821L421.939 944.537C421.939 974.675 447.915 1000 478.037 1000H524.354C554.476 1000 578.419 973.927 578.419 943.789Z" fill="#08EADE"/>
</g>
<defs>
<clipPath id="clip0">
<rect width="1000" height="1000" fill="white" transform="translate(1000) rotate(90)"/>
</clipPath>
</defs>
</svg>
